name Walk4.mot
datacolumns 19
datarows 17
range 1.77000000 1.85000000
endheader

                time	   L_ground_force_vx	   L_ground_force_vy	   L_ground_force_vz	   L_ground_force_px	   L_ground_force_py	   L_ground_force_pz	   R_ground_force_vx	   R_ground_force_vy	   R_ground_force_vz	   R_ground_force_px	   R_ground_force_py	   R_ground_force_pz	   L_ground_torque_x	   L_ground_torque_y	   L_ground_torque_z	   R_ground_torque_x	   R_ground_torque_y	   R_ground_torque_z	
          1.77000000	        -13.90384516	         93.39866324	        -10.45496590	          0.00086436	          0.00000000	          0.00127362	         -0.00000000	          0.00000000	          0.00000000	          0.00000000	          0.00000000	          0.00000000	          0.00000000	          0.32965525	          0.00000000	          0.00000000	          0.00000000	          0.00000000	
          1.77500000	        -24.11500109	        143.20414752	        -16.38655148	         -0.07896001	          0.00000000	         -0.00576601	         -0.00000000	          0.00000000	          0.00000000	          0.00000000	          0.00000000	          0.00000000	          0.00000000	          0.48120918	          0.00000000	          0.00000000	          0.00000000	          0.00000000	
          1.78000000	        -34.88346587	        200.33394987	        -22.79405152	         -0.15300294	          0.00000000	         -0.01225665	         -0.00000000	          0.00000000	          0.00000000	          0.00000000	          0.00000000	          0.00000000	          0.00000000	          0.66792570	          0.00000000	          0.00000000	          0.00000000	          0.00000000	
          1.78500000	        -45.70112358	        262.53033196	        -29.33758832	         -0.21738950	          0.00000000	         -0.01787467	         -0.00000000	          0.00000000	          0.00000000	          0.00000000	          0.00000000	          0.00000000	          0.00000000	          0.88489359	          0.00000000	          0.00000000	          0.00000000	          0.00000000	
          1.79000000	        -56.22525842	        326.54730865	        -35.59414394	         -0.27036823	          0.00000000	         -0.02249485	         -0.00000000	          0.00000000	          0.00000000	          0.00000000	          0.00000000	          0.00000000	          0.00000000	          1.12259625	          0.00000000	          0.00000000	          0.00000000	          0.00000000	
          1.79500000	        -66.37938802	        388.89216121	        -41.05001541	         -0.31171850	          0.00000000	         -0.02613643	         -0.00000000	          0.00000000	          0.00000000	          0.00000000	          0.00000000	          0.00000000	          0.00000000	          1.36850456	          0.00000000	          0.00000000	          0.00000000	          0.00000000	
          1.80000000	        -76.14666742	        446.62270414	        -45.16128077	         -0.34222114	          0.00000000	         -0.02890891	         -0.00000000	          0.00000000	          0.00000000	          0.00000000	          0.00000000	          0.00000000	          0.00000000	          1.60743348	          0.00000000	          0.00000000	          0.00000000	          0.00000000	
          1.80500000	        -85.30003067	        497.63182489	        -47.49285909	         -0.36323909	          0.00000000	         -0.03096302	         -0.00000000	          0.00000000	          0.00000000	          0.00000000	          0.00000000	          0.00000000	          0.00000000	          1.82062096	          0.00000000	          0.00000000	          0.00000000	          0.00000000	
          1.81000000	        -93.32688854	        540.66523995	        -47.78191711	         -0.37639819	          0.00000000	         -0.03246098	         -0.00000000	          0.00000001	          0.00000000	          0.00000000	          0.00000000	          0.00000000	          0.00000000	          1.98684361	          0.00000000	          0.00000000	          0.00000000	          0.00000000	
          1.81500000	        -99.62659757	        575.31702700	        -45.89828821	         -0.38335807	          0.00000000	         -0.03356162	         -0.00000000	          0.00000001	          0.00000000	          0.00000000	          0.00000000	          0.00000000	          0.00000000	          2.08580692	          0.00000000	          0.00000000	          0.00000000	          0.00000000	
          1.82000000	       -103.87390359	        601.88914541	        -41.79430534	         -0.38565761	          0.00000000	         -0.03441038	         -0.00000000	          0.00000001	          0.00000000	          0.00000000	          0.00000000	          0.00000000	          0.00000000	          2.10235455	          0.00000000	          0.00000000	          0.00000000	          0.00000000	
          1.82500000	       -106.25610614	        621.17317801	        -35.50321979	         -0.38462457	          0.00000000	         -0.03513194	         -0.00000000	          0.00000001	          0.00000000	          0.00000000	          0.00000000	          0.00000000	          0.00000000	          2.02971024	          0.00000000	          0.00000000	          0.00000000	          0.00000000	
          1.83000000	       -107.37291633	        634.31527323	        -27.17192923	         -0.38134068	          0.00000000	         -0.03582318	         -0.00000000	          0.00000001	          0.00000000	          0.00000000	          0.00000000	          0.00000000	          0.00000000	          1.87109687	          0.00000000	          0.00000000	          0.00000000	          0.00000000	
          1.83500000	       -107.92367498	        642.75742512	        -17.07996677	         -0.37664461	          0.00000000	         -0.03654976	         -0.00000000	          0.00000000	         -0.00000000	         -0.00000000	          0.00000000	         -0.00000000	          0.00000000	          1.63979724	          0.00000000	          0.00000000	          0.00000000	          0.00000000	
          1.84000000	       -108.45833211	        648.15670276	         -5.62695308	         -0.37115799	          0.00000000	         -0.03734885	          0.00000000	          0.00000000	         -0.00000000	         -0.00000000	          0.00000000	         -0.00000000	          0.00000000	          1.35795913	          0.00000000	          0.00000000	         -0.00000000	          0.00000000	
          1.84500000	       -109.31086256	        652.22598004	          6.68855955	         -0.36532276	          0.00000000	         -0.03823113	          0.00000000	         -0.00000001	         -0.00000000	         -0.00000000	          0.00000000	         -0.00000000	          0.00000000	          1.05578594	          0.00000000	          0.00000000	         -0.00000000	          0.00000000	
          1.85000000	       -110.65242705	        656.49262470	         19.27901998	         -0.35944266	          0.00000000	         -0.03918163	          0.00000000	         -0.00000001	         -0.00000000	         -0.00000000	          0.00000000	         -0.00000000	          0.00000000	          0.77057761	          0.00000000	          0.00000000	         -0.00000000	          0.00000000	
